<?xml version="1.0" standalone="no"?>
<!DOCTYPE svg PUBLIC "-//W3C//DTD SVG 20010904//EN"
 "http://www.w3.org/TR/2001/REC-SVG-20010904/DTD/svg10.dtd">
<svg version="1.0" xmlns="http://www.w3.org/2000/svg"
 width="621.000000pt" height="555.000000pt" viewBox="0 0 621.000000 555.000000"
 preserveAspectRatio="xMidYMid meet">

<g transform="translate(0.000000,555.000000) scale(0.100000,-0.100000)"
fill="#000000" stroke="none">
<path d="M3815 5330 c-4 -6 -16 -8 -26 -5 -11 4 -25 3 -32 -2 -16 -13 -148
-56 -282 -92 -60 -16 -137 -41 -170 -55 -33 -14 -89 -32 -125 -42 -36 -9 -81
-25 -101 -35 -20 -10 -43 -19 -50 -19 -7 0 -33 -10 -57 -21 -38 -19 -49 -20
-83 -10 -27 8 -45 9 -58 1 -11 -5 -26 -10 -34 -10 -8 0 -45 -20 -83 -45 -37
-25 -74 -45 -81 -45 -8 0 -25 -7 -38 -16 -24 -16 -27 -15 -61 11 -19 15 -51
43 -71 62 -48 49 -133 105 -152 101 -9 -2 -15 -12 -15 -22 2 -16 0 -16 -15 -2
-10 9 -26 16 -36 16 -10 0 -38 12 -63 26 -37 22 -48 24 -68 15 -13 -6 -24 -19
-24 -29 0 -10 -5 -23 -11 -29 -8 -8 -8 -21 -1 -45 6 -18 13 -71 17 -118 4 -46
13 -93 21 -104 8 -11 14 -28 14 -38 0 -17 -17 -18 -239 -18 -182 0 -256 -4
-307 -16 -55 -12 -106 -14 -265 -9 -146 4 -199 2 -205 -6 -4 -7 1 -18 11 -25
74 -54 108 -92 137 -152 18 -37 49 -88 70 -113 21 -26 38 -51 38 -55 0 -5 -9
-20 -20 -34 -11 -14 -20 -32 -20 -40 0 -19 -60 -100 -135 -182 -57 -63 -63
-76 -44 -95 8 -8 0 -22 -29 -51 -21 -21 -48 -54 -58 -73 -11 -19 -29 -47 -41
-62 -14 -17 -23 -42 -23 -63 0 -27 -8 -42 -36 -68 -68 -63 -12 -72 132 -21 38
14 81 25 96 25 15 0 38 4 52 10 14 5 26 8 26 6 0 -19 -41 -158 -54 -181 -20
-38 -20 -52 0 -63 13 -8 13 -17 -7 -84 -22 -76 -21 -115 5 -105 9 4 16 -5 21
-26 14 -62 5 -140 -25 -212 -15 -38 -32 -88 -35 -110 -4 -22 -13 -47 -20 -55
-8 -8 -17 -28 -20 -45 -4 -16 -14 -40 -22 -53 -8 -13 -12 -31 -9 -39 7 -17 30
-15 136 11 l55 13 1 -33 c0 -23 10 -43 30 -64 36 -37 47 -37 75 -2 l22 27 -8
-40 c-3 -21 -14 -45 -23 -52 -16 -12 -16 -14 0 -26 9 -7 18 -26 20 -42 2 -23
8 -30 23 -28 25 2 35 -13 35 -58 0 -31 -5 -40 -40 -63 -47 -31 -82 -99 -99
-192 -22 -122 -16 -144 81 -260 54 -65 77 -85 122 -104 51 -21 56 -26 56 -54
0 -20 9 -39 25 -54 13 -13 27 -40 30 -60 3 -20 17 -64 30 -98 13 -33 27 -78
31 -100 4 -21 18 -59 31 -85 12 -26 23 -54 23 -62 0 -17 71 -97 86 -97 5 0 14
-8 21 -19 16 -26 141 -113 152 -106 5 3 12 1 16 -5 3 -5 16 -10 27 -10 26 0
148 -39 166 -53 15 -12 52 -93 52 -116 0 -9 7 -25 15 -35 8 -11 15 -28 15 -38
0 -40 67 -29 120 19 31 28 29 28 64 -2 16 -14 33 -25 37 -25 4 0 14 -6 21 -13
7 -7 36 -29 64 -49 l52 -35 -32 -11 c-18 -7 -44 -12 -58 -12 -13 0 -47 -11
-74 -25 -27 -14 -59 -25 -72 -25 -12 0 -39 -7 -60 -16 -65 -28 -95 -34 -108
-23 -9 8 -25 4 -56 -14 -24 -14 -54 -28 -67 -32 -49 -15 -131 -85 -131 -113 0
-5 -15 -32 -33 -58 -19 -27 -37 -67 -40 -90 -6 -38 -21 -78 -67 -180 -11 -23
-22 -53 -26 -67 -3 -15 -12 -31 -20 -38 -8 -6 -14 -20 -14 -30 0 -18 33 -19
1230 -19 1011 0 1230 2 1230 13 0 7 -20 72 -45 143 -25 71 -47 141 -48 155 -2
15 -15 43 -30 62 -15 20 -27 42 -27 49 0 18 -72 88 -91 88 -8 0 -19 10 -24 23
-8 16 -26 26 -76 39 -36 9 -80 23 -97 32 -17 9 -45 16 -61 16 -17 0 -45 6 -63
14 -18 8 -71 26 -118 40 -81 25 -138 46 -187 69 -13 6 -36 10 -53 10 -16 0
-30 3 -30 7 0 3 27 31 59 62 56 52 61 55 80 41 12 -8 21 -20 21 -28 0 -8 10
-19 21 -26 18 -9 25 -7 50 20 16 17 34 49 40 71 7 22 18 40 26 40 7 0 13 7 13
15 0 8 5 15 10 15 6 0 10 9 10 19 0 11 7 26 15 35 8 8 12 21 9 29 -4 10 10 17
55 27 34 7 61 17 61 22 0 5 21 18 46 29 50 22 52 25 135 120 131 149 169 194
169 202 0 5 14 29 30 54 29 42 72 149 90 219 10 44 18 54 40 54 10 0 22 5 25
10 3 6 14 10 24 10 43 0 151 121 151 169 0 10 7 36 16 57 21 51 15 154 -14
215 -26 57 -37 66 -100 84 -40 12 -49 19 -45 34 4 16 8 17 46 5 73 -23 154
-37 167 -29 13 8 8 80 -9 112 -18 37 -61 184 -61 212 0 15 -7 34 -15 41 -11 9
-15 34 -15 99 l1 86 24 -46 c51 -98 75 -89 75 27 0 46 1 84 3 84 1 0 33 -11
71 -25 38 -14 75 -25 82 -25 25 0 31 36 23 150 -6 95 -12 127 -37 185 -29 69
-30 72 -36 311 l-5 241 25 12 c14 6 31 11 39 11 27 0 170 63 180 79 6 9 13 30
17 46 8 36 -7 56 -72 93 -25 14 -56 38 -69 54 -13 16 -40 40 -60 54 -20 13
-53 35 -74 49 -56 38 -153 139 -176 182 -10 21 -37 55 -59 77 l-40 39 27 23
c16 13 36 21 47 18 14 -3 32 10 64 46 25 28 62 69 83 91 40 42 43 69 8 69 -10
0 -21 6 -24 13 -3 9 -45 17 -134 26 -117 11 -581 31 -714 31 l-57 0 44 128
c24 70 44 135 44 146 0 10 11 44 24 75 33 78 59 168 51 181 -8 13 -22 13 -30
0z m-85 -97 c-1 -5 -7 -19 -15 -33 -8 -14 -15 -41 -15 -60 -1 -43 -23 -138
-39 -168 -24 -46 -53 -149 -57 -204 -4 -59 6 -78 31 -58 8 6 18 9 24 6 5 -4
11 4 13 16 3 21 9 23 67 26 50 2 67 0 73 -12 8 -14 45 -16 271 -17 222 -1 502
-12 445 -17 -10 -1 -18 -6 -18 -11 0 -5 -22 -23 -50 -41 -33 -21 -50 -39 -50
-52 0 -11 -20 -43 -45 -71 -40 -44 -45 -54 -39 -81 9 -43 178 -246 205 -246
12 0 79 -71 93 -98 16 -31 57 -68 92 -84 13 -6 24 -15 24 -20 0 -4 7 -8 15 -8
8 0 15 -4 15 -9 0 -4 20 -21 45 -36 44 -28 44 -28 20 -41 -13 -6 -58 -20 -100
-30 -47 -11 -82 -25 -88 -35 -10 -16 -12 -16 -23 -1 -35 47 -40 -33 -19 -300
6 -66 4 -77 -8 -72 -21 8 -31 -14 -19 -39 30 -60 45 -134 53 -267 5 -79 14
-149 19 -154 17 -17 12 -38 -7 -33 -10 3 -30 8 -45 11 -24 5 -27 11 -30 54 -2
34 -7 47 -18 47 -8 0 -17 -11 -18 -25 -2 -13 -11 -29 -20 -36 -12 -9 -14 -23
-9 -70 l7 -59 -31 35 c-17 19 -56 73 -86 120 -31 47 -70 103 -88 125 -18 22
-46 64 -61 93 -16 30 -37 69 -47 88 -10 19 -23 34 -28 34 -13 0 -59 -77 -76
-127 -9 -25 -19 -41 -23 -36 -10 11 -50 127 -63 183 -5 25 -11 108 -13 184 -2
76 -7 143 -13 149 -14 14 -31 -1 -31 -29 0 -54 -26 -20 -58 76 -14 41 -24 55
-38 55 -16 0 -19 -8 -19 -53 0 -31 -4 -52 -11 -52 -27 0 -81 25 -99 45 -11 13
-31 25 -45 28 -14 3 -70 19 -125 36 -55 16 -131 37 -170 46 -38 10 -97 23
-130 31 -137 33 -287 45 -300 24 -3 -6 -81 -7 -204 -3 -204 6 -380 -7 -411
-31 -8 -7 -33 -21 -55 -31 -22 -11 -53 -30 -68 -42 -16 -13 -40 -23 -53 -23
-17 0 -27 -8 -34 -25 -5 -14 -20 -29 -32 -34 -37 -14 -92 -77 -84 -96 3 -10
12 -15 21 -11 17 6 5 -14 -126 -211 -48 -73 -90 -145 -92 -160 -2 -16 -5 17
-7 72 -4 155 -6 175 -18 187 -14 14 -32 1 -32 -23 0 -19 -10 -24 -39 -19 -8 1
-21 -6 -28 -16 -12 -17 -13 -16 -13 3 0 28 -18 39 -35 22 -15 -15 -52 -113
-64 -169 -4 -19 -12 -44 -18 -55 -16 -31 -33 -83 -54 -168 -22 -89 -33 -113
-66 -144 -12 -12 -23 -31 -23 -41 0 -11 -7 -25 -15 -32 -9 -7 -14 -19 -11 -26
3 -8 -5 -26 -18 -41 l-24 -28 -6 45 c-4 25 -8 166 -9 314 -1 204 -5 270 -14
273 -7 3 -18 -8 -24 -24 -18 -45 -22 -9 -5 42 9 25 16 55 16 66 0 11 11 42 25
69 15 29 25 66 25 91 0 22 7 68 16 101 15 61 14 88 -6 88 -6 0 -14 -8 -18 -17
-4 -10 -14 -18 -22 -18 -8 0 -17 -10 -20 -23 -4 -20 -12 -24 -60 -27 -30 -2
-75 -11 -100 -20 -25 -10 -59 -21 -77 -25 l-31 -7 47 66 c26 36 69 104 95 151
27 47 59 96 71 110 13 14 40 57 61 95 21 39 41 71 45 73 4 2 22 26 40 54 26
40 30 54 21 68 -7 12 -7 21 0 28 11 11 -2 39 -47 94 -56 69 -72 93 -80 118 -4
14 -12 31 -18 38 -6 8 -12 23 -14 33 -3 18 7 19 220 20 566 2 729 11 711 40
-3 5 -1 9 5 9 7 0 7 8 1 26 -6 14 -13 64 -16 112 -3 48 -10 100 -16 115 -6 15
-8 30 -5 33 9 9 109 -31 163 -65 26 -17 57 -31 67 -31 20 0 110 -44 140 -69
15 -12 19 -12 35 1 9 9 33 19 52 23 19 4 37 11 40 15 12 17 359 130 400 130
12 0 49 11 83 24 34 13 85 27 112 31 28 3 74 17 104 31 29 13 58 24 64 24 5 0
20 12 34 26 20 22 29 25 64 19 25 -4 45 -3 54 5 36 30 156 63 155 43z m-222
-1703 c13 -6 34 -10 47 -10 13 0 27 -4 30 -10 3 -5 18 -10 32 -10 13 0 37 -6
51 -14 15 -8 43 -17 62 -20 32 -5 37 -11 53 -56 10 -28 21 -50 26 -50 4 0 12
-66 16 -147 10 -164 10 -173 -3 -291 -10 -100 -21 -111 -109 -112 -34 0 -64
-4 -68 -9 -6 -11 -1036 -3 -1270 10 -88 5 -191 9 -230 9 -38 0 -75 3 -81 7
-23 16 -33 84 -40 274 -6 175 -5 197 10 202 11 4 16 19 16 47 0 36 4 42 40 65
22 14 49 25 60 25 12 0 45 11 73 24 102 47 185 55 677 65 212 4 398 12 414 17
32 11 156 1 194 -16z m-2208 -535 l0 -144 -37 -10 c-21 -5 -50 -12 -64 -15
l-26 -6 23 47 c13 25 24 54 24 62 0 9 9 31 20 49 11 18 20 45 20 60 0 16 7 37
15 48 8 10 15 27 15 37 0 9 2 17 5 17 3 0 5 -65 5 -145z m644 -337 c-4 -7 -14
-21 -22 -31 -19 -22 -3 -43 25 -32 10 4 61 23 113 41 85 30 107 34 202 34 101
0 106 -1 101 -20 -3 -11 -9 -20 -14 -20 -5 0 -9 -9 -9 -20 0 -22 25 -51 73
-85 l27 -20 -137 0 c-118 -1 -146 -4 -193 -23 -30 -12 -62 -22 -70 -22 -8 0
-26 -9 -40 -20 -14 -11 -32 -20 -40 -20 -8 0 -28 -12 -45 -25 -26 -22 -29 -30
-29 -80 1 -57 13 -83 33 -71 6 4 11 20 11 36 0 24 8 35 43 57 23 15 44 30 47
34 3 3 14 8 25 11 19 5 20 1 17 -116 -2 -80 1 -131 9 -151 7 -16 11 -38 10
-47 -1 -9 11 -25 26 -35 15 -10 30 -20 33 -24 16 -21 101 -36 175 -32 89 6
120 22 135 70 5 15 20 55 34 88 33 77 36 182 6 246 -23 52 -11 63 29 25 45
-43 129 -27 92 18 -9 10 -8 15 4 20 24 9 18 67 -11 110 l-27 39 24 -5 c13 -3
32 -9 41 -13 13 -5 20 0 28 21 6 15 9 33 6 39 -3 9 31 14 122 18 157 8 427 9
420 1 -6 -6 -97 -30 -158 -42 -19 -4 -35 -13 -35 -19 0 -16 92 -64 110 -57 12
5 13 -3 8 -43 -5 -44 -2 -53 21 -78 24 -26 25 -29 8 -41 -13 -10 -14 -15 -5
-25 10 -10 23 -8 63 11 27 13 50 26 50 30 0 4 12 12 26 19 24 10 26 10 19 -6
-12 -32 -24 -145 -25 -239 0 -102 3 -107 105 -173 63 -41 81 -45 168 -38 l72
5 53 58 53 59 -3 138 -3 137 48 0 c66 0 105 -27 109 -78 5 -55 32 -50 36 7 5
73 -46 112 -198 151 -47 12 -89 26 -95 30 -12 9 -162 30 -216 30 -37 0 -38 1
-28 23 16 35 -1 90 -32 98 -13 4 22 7 79 8 56 1 110 6 120 11 13 8 36 5 92
-14 79 -26 95 -25 87 5 -8 30 51 24 119 -12 33 -18 84 -37 114 -43 60 -13 59
-12 75 -117 3 -21 16 -53 29 -72 13 -19 36 -70 50 -114 15 -43 31 -86 36 -95
6 -10 10 -27 10 -39 0 -12 8 -23 20 -26 18 -5 20 -14 20 -104 0 -54 4 -101 10
-104 12 -8 13 -72 1 -79 -4 -3 -11 -27 -13 -53 -3 -27 -15 -74 -28 -106 -21
-56 -23 -58 -52 -52 -17 4 -53 17 -82 30 -28 12 -72 25 -98 29 -40 6 -48 4
-57 -13 -10 -18 -5 -22 44 -40 31 -12 61 -21 68 -21 7 0 17 -4 23 -9 5 -5 26
-14 47 -21 52 -16 49 -43 -12 -128 -23 -33 -23 -33 -50 -15 -55 36 -135 74
-148 69 -32 -13 1 -53 75 -90 28 -14 52 -31 52 -36 0 -11 -60 -68 -88 -84 -12
-7 -27 3 -63 42 -26 29 -53 52 -59 52 -26 0 -19 -32 20 -81 22 -28 39 -56 37
-62 -3 -11 -125 -77 -142 -77 -7 0 -18 -6 -24 -13 -6 -8 -30 -20 -53 -28 -24
-7 -59 -22 -78 -31 -19 -10 -40 -18 -48 -18 -8 0 -62 -14 -121 -32 l-106 -32
-275 0 c-320 -1 -425 7 -534 40 -44 13 -89 24 -101 24 -11 0 -76 18 -144 40
-67 22 -129 40 -136 40 -24 0 -65 23 -65 36 0 7 -17 23 -37 35 -21 12 -40 24
-42 26 -9 7 53 83 69 83 25 0 52 35 48 62 -6 41 -35 32 -102 -32 -35 -34 -68
-62 -73 -61 -4 0 -15 13 -23 28 -8 16 -25 42 -36 58 -38 53 -39 71 -4 86 16 8
30 17 30 21 0 5 6 8 13 8 7 0 28 13 46 29 19 17 43 31 54 33 11 2 22 9 25 15
6 19 -27 28 -49 15 -10 -7 -24 -12 -31 -12 -15 0 -103 -44 -124 -61 -11 -9
-14 -8 -15 7 0 11 -8 42 -18 69 l-17 50 81 40 c84 42 102 67 52 73 -32 4 -117
-32 -130 -54 -12 -20 -27 -7 -27 23 0 14 -10 41 -22 61 -14 23 -21 48 -19 76
1 22 -3 61 -8 86 -22 98 -16 240 10 240 5 0 9 7 9 16 0 9 6 28 14 42 40 74 76
165 76 193 0 21 4 28 13 23 8 -5 8 -2 -2 9 -9 11 -10 17 -2 17 6 0 11 13 11
29 0 17 4 32 9 35 5 4 12 24 16 46 8 46 11 49 79 65 28 7 52 13 54 14 2 1 0
-5 -4 -11z m2505 -53 c19 -48 33 -93 42 -130 6 -21 15 -45 21 -53 7 -7 -12 -3
-43 11 -30 13 -66 27 -80 30 l-27 7 15 42 c8 24 21 50 29 59 8 8 14 27 14 41
0 28 13 46 18 26 2 -7 7 -22 11 -33z m-2719 -68 c0 -29 -6 -61 -14 -72 -7 -11
-16 -36 -20 -55 -15 -80 -30 -128 -56 -185 -16 -33 -30 -69 -32 -80 -3 -14 -9
-4 -19 30 -9 31 -20 50 -29 50 -12 0 -14 -14 -12 -75 l3 -74 -20 26 c-19 24
-21 40 -21 181 0 93 4 158 10 162 6 3 10 28 10 55 l0 48 48 12 c163 39 152 41
152 -23z m2472 -36 c21 -7 42 -10 48 -6 5 3 18 0 29 -7 18 -11 20 -24 20 -184
0 -155 -2 -171 -17 -170 -13 1 -18 14 -22 56 -4 40 -9 55 -20 55 -8 0 -16 -9
-18 -20 -6 -29 -22 -43 -22 -19 0 11 -6 40 -14 65 -8 24 -24 75 -36 114 -12
38 -25 74 -29 80 -5 5 -11 24 -14 42 l-6 32 32 -13 c18 -8 49 -19 69 -25z
m-1822 -61 c24 0 32 -7 50 -46 12 -25 20 -48 17 -51 -12 -11 -93 -14 -119 -4
-24 9 -28 16 -28 50 0 30 6 44 22 56 14 9 24 11 26 5 2 -5 16 -10 32 -10z
m1238 -55 c65 -23 82 -37 82 -67 0 -23 -4 -28 -26 -28 -34 0 -116 20 -131 33
-18 13 -16 42 3 61 19 19 19 19 72 1z m-2128 -355 c8 -5 18 -10 23 -10 4 0 7
-11 7 -25 0 -14 7 -28 15 -31 8 -4 15 -16 15 -28 0 -12 5 -27 12 -34 21 -21
-3 -13 -40 14 -93 67 -148 178 -140 279 3 37 15 66 44 110 l39 60 5 -163 c4
-130 8 -165 20 -172z m2935 194 l48 -66 -7 -70 c-3 -38 -12 -84 -20 -102 -15
-36 -85 -108 -98 -100 -4 3 -8 95 -8 205 0 189 1 199 19 199 12 0 36 -24 66
-66z m-863 -1269 c-21 -68 -43 -82 -64 -39 -11 23 -20 29 -55 31 -40 2 -44 0
-57 -30 -8 -17 -26 -46 -42 -63 l-28 -32 -28 35 c-30 38 -36 74 -15 91 11 9
106 37 257 76 30 7 46 8 47 1 2 -5 -5 -37 -15 -70z m-1092 35 c30 -11 78 -20
106 -20 28 0 65 -3 82 -6 27 -5 30 -11 36 -53 6 -48 -1 -111 -13 -111 -6 0
-57 35 -178 122 -18 13 -33 28 -33 35 0 6 -4 14 -9 17 -9 6 -63 -9 -94 -25
-12 -7 -19 -6 -22 3 -2 7 -9 26 -15 42 l-11 29 49 -7 c26 -3 72 -15 102 -26z
m352 -184 c33 -47 71 -76 95 -76 22 0 207 59 265 84 30 13 42 14 63 4 29 -13
34 -54 8 -73 -18 -13 -10 -35 12 -35 14 0 55 -67 55 -89 0 -16 -142 -131 -162
-131 -10 0 -30 -7 -43 -16 -21 -14 -47 -16 -155 -12 -145 4 -146 5 -216 99
-29 40 -34 55 -34 103 0 31 7 85 16 119 14 58 17 63 42 61 19 0 35 -12 54 -38z"/>
<path d="M2980 3372 c-24 -28 -28 -29 -87 -24 -116 9 -202 -50 -203 -138 0
-20 -16 -73 -35 -119 -39 -92 -40 -100 -22 -125 12 -16 18 -17 58 -6 24 7 52
16 61 21 9 4 47 11 85 15 80 8 114 23 142 63 42 59 20 141 -49 176 -63 33
-140 2 -140 -55 0 -61 36 -108 63 -81 8 8 8 14 -1 23 -17 17 -15 35 8 58 16
16 24 18 44 9 14 -7 30 -24 36 -39 23 -55 -47 -117 -118 -104 -46 8 -60 19
-78 62 -48 115 25 212 150 198 26 -3 55 -11 63 -17 20 -17 73 36 76 76 3 40
-22 43 -53 7z m-253 -358 c-1 -1 -14 -4 -29 -8 -27 -6 -27 -6 -16 25 l11 32
18 -24 c10 -13 17 -24 16 -25z"/>
<path d="M3700 3380 c-29 -22 -21 -36 28 -46 25 -5 33 -3 38 11 8 20 -7 49
-27 52 -8 2 -25 -6 -39 -17z"/>
<path d="M2127 3363 c-25 -43 -7 -113 25 -100 24 9 32 79 11 95 -19 14 -30 15
-36 5z"/>
<path d="M3708 3184 c-31 -16 -47 -59 -29 -77 10 -9 15 -9 24 3 7 8 21 15 32
15 16 0 20 7 20 34 0 40 -10 46 -47 25z"/>
<path d="M2097 3153 c-10 -9 -8 -43 2 -43 5 0 11 -9 14 -19 3 -11 17 -22 37
-26 41 -9 60 7 38 32 -8 10 -18 26 -22 37 -3 11 -12 16 -21 12 -8 -3 -17 -1
-20 4 -7 12 -19 13 -28 3z"/>
<path d="M2118 2935 c-14 -31 0 -50 30 -41 29 9 37 38 16 53 -25 18 -33 16
-46 -12z"/>
<path d="M3690 2940 c-29 -29 -20 -46 21 -42 43 3 57 17 43 40 -16 25 -40 26
-64 2z"/>
<path d="M2727 1792 c-43 -44 -46 -70 -12 -110 20 -24 33 -30 66 -30 81 -1
100 49 24 64 -19 3 -35 11 -35 18 1 22 28 46 53 46 34 0 45 19 22 37 -35 25
-78 16 -118 -25z"/>
<path d="M3385 1570 c-4 -7 -2 -17 4 -23 19 -19 13 -26 -36 -41 -27 -8 -104
-34 -173 -59 -69 -24 -143 -47 -165 -51 -22 -4 -97 -25 -166 -47 -70 -22 -146
-43 -170 -47 -29 -5 -44 -13 -44 -22 0 -29 69 -22 216 23 79 25 167 50 196 56
28 6 75 20 105 31 29 11 63 20 76 20 13 0 35 6 50 13 15 8 54 19 87 26 88 18
125 37 125 65 0 13 -8 30 -17 38 -24 21 -79 32 -88 18z"/>
</g>
</svg>
