<?xml version="1.0" standalone="no"?>
<!DOCTYPE svg PUBLIC "-//W3C//DTD SVG 20010904//EN"
 "http://www.w3.org/TR/2001/REC-SVG-20010904/DTD/svg10.dtd">
<svg version="1.0" xmlns="http://www.w3.org/2000/svg"
 width="360.000000pt" height="548.000000pt" viewBox="0 0 360.000000 548.000000"
 preserveAspectRatio="xMidYMid meet">

<g transform="translate(0.000000,548.000000) scale(0.100000,-0.100000)"
fill="#000000" stroke="none">
<path d="M1789 5478 c-4 -13 -3 -120 1 -123 3 -2 5 -52 3 -112 -1 -60 1 -122
6 -138 l8 -30 11 40 c20 74 26 180 11 196 -20 20 -20 91 -2 105 14 9 14 14 -2
37 -14 23 -32 35 -36 25z"/>
<path d="M1780 4881 c-13 -25 -13 -58 0 -66 6 -3 10 -31 10 -61 0 -30 4 -54 9
-54 10 0 25 175 16 190 -10 16 -23 12 -35 -9z"/>
<path d="M1780 4609 c-21 -38 -23 -302 -4 -589 19 -305 21 -928 3 -1219 -8
-132 -8 -166 3 -172 7 -5 8 -9 2 -9 -8 0 -11 -63 -10 -207 1 -214 -11 -682
-19 -741 -2 -19 0 -30 5 -27 6 4 7 -3 1 -17 -12 -35 -5 -933 9 -1073 7 -66 16
-169 20 -230 7 -103 7 -99 8 75 0 102 7 273 16 381 15 196 12 647 -5 589 -8
-28 -11 2 -13 137 0 40 -5 73 -9 73 -5 0 -5 6 0 12 9 15 12 89 3 83 -3 -2 -5
11 -4 28 5 55 5 87 5 272 -1 99 1 192 4 206 8 42 26 1234 25 1627 0 123 -3
254 -5 290 -3 37 -5 169 -6 294 0 126 -5 230 -9 233 -5 3 -14 -4 -20 -16z"/>
</g>
</svg>
